<?xml version="1.0" encoding="UTF-8" standalone="no"?>
<!-- Created with Inkscape (http://www.inkscape.org/) -->

<svg
   version="1.1"
   id="svg2"
   viewBox="0 0 793.33331 1122.6667"
   sodipodi:docname="logo.ai"
   xmlns:inkscape="http://www.inkscape.org/namespaces/inkscape"
   xmlns:sodipodi="http://sodipodi.sourceforge.net/DTD/sodipodi-0.dtd"
   xmlns="http://www.w3.org/2000/svg"
   xmlns:svg="http://www.w3.org/2000/svg">
  <defs
     id="defs6">
    <clipPath
       clipPathUnits="userSpaceOnUse"
       id="clipPath16">
      <path
         d="M 0,842 H 595 V 0 H 0 Z"
         id="path14" />
    </clipPath>
  </defs>
  <sodipodi:namedview
     id="namedview4"
     pagecolor="#ffffff"
     bordercolor="#000000"
     borderopacity="0.25"
     inkscape:showpageshadow="2"
     inkscape:pageopacity="0.0"
     inkscape:pagecheckerboard="0"
     inkscape:deskcolor="#d1d1d1" />
  <g
     id="g8"
     inkscape:groupmode="layer"
     inkscape:label="logo"
     transform="matrix(1.3333333,0,0,-1.3333333,0,1122.6667)">
    <g
       id="g10">
      <g
         id="g12"
         clip-path="url(#clipPath16)">
        <g
           id="g18"
           transform="translate(495.4863,526.8311)">
          <path
             d="m 0,0 c -6.892,-6.842 -10.353,-15.308 -10.353,-25.318 v -69.93 c 0,-32.915 -11.975,-60.896 -34.659,-83.785 -48.948,-49.376 -157.417,-50.836 -205.818,-2.436 -24.904,24.899 -37.371,55.863 -37.371,92.835 v 207.37 c 0,12.054 3.716,21.901 11.15,29.533 7.44,7.64 17.179,11.456 29.24,11.456 12.054,0 21.901,-3.816 29.533,-11.456 7.64,-7.632 11.456,-17.479 11.456,-29.533 V 86.783 h 72.685 c 12.054,0 21.801,-3.717 29.235,-11.15 7.432,-7.433 11.149,-17.18 11.149,-29.241 0,-27.325 -13.464,-40.988 -40.384,-40.988 h -72.685 v -94.038 c 0,-65.224 115.895,-74.929 115.091,4.642 -0.164,16.076 0,25.119 0,25.517 v 33.157 c 0,33.356 11.356,61.386 34.161,84.091 22.804,22.706 50.941,34.062 84.397,34.062 12.153,0 22.043,-3.717 29.733,-11.157 7.646,-7.39 11.455,-17.18 11.455,-29.234 0,-11.655 -3.66,-21.095 -10.951,-28.337 C 49.824,16.917 40.184,12.759 28.229,11.755 16.275,10.751 6.835,6.785 0,0"
             style="fill:#fff;fill-opacity:1;fill-rule:nonzero;stroke:none"
             id="path20" />
        </g>
        <g
           id="g22"
           transform="translate(181.1162,708.6055)">
          <path
             d="m 0,0 c 7.971,-8 11.959,-17.559 11.959,-28.649 0,-11.107 -3.988,-20.65 -11.959,-28.65 -7.972,-8.008 -17.48,-12.003 -28.531,-12.003 -11.073,0 -20.586,3.995 -28.563,12.003 -7.97,8 -11.95,17.543 -11.95,28.65 0,11.09 3.98,20.649 11.95,28.649 7.977,7.998 17.49,12.003 28.563,12.003 C -17.48,12.003 -7.972,7.998 0,0"
             style="fill:#fff;fill-opacity:1;fill-rule:evenodd;stroke:none"
             id="path24" />
        </g>
        <g
           id="g26"
           transform="translate(193.082,351.1387)">
          <path
             d="M 0,0 C 0.047,-0.8 0.075,-1.606 0.075,-2.419 0.075,-3.23 0.047,-4.036 0,-4.837 v -0.189 h -0.012 c -1.354,-21.225 -19.086,-38.121 -40.642,-38.121 -21.557,0 -39.29,16.896 -40.643,38.121 h -0.012 v 0.182 c -0.048,0.803 -0.075,1.611 -0.075,2.425 0,0.815 0.028,1.623 0.075,2.427 v 226.484 c -0.047,0.804 -0.075,1.613 -0.075,2.429 0,22.433 18.297,40.729 40.73,40.729 22.432,0 40.729,-18.296 40.729,-40.729 0,-0.812 -0.028,-1.617 -0.075,-2.417 z"
             style="fill:#fff;fill-opacity:1;fill-rule:evenodd;stroke:none"
             id="path28" />
        </g>
      </g>
    </g>
  </g>
</svg>
